<?xml version="1.0" encoding="utf-8"?>
<!-- Generator: Adobe Illustrator 15.1.0, SVG Export Plug-In . SVG Version: 6.00 Build 0)  -->
<!DOCTYPE svg PUBLIC "-//W3C//DTD SVG 1.1 Basic//EN" "http://www.w3.org/Graphics/SVG/1.1/DTD/svg11-basic.dtd">
<svg version="1.1" baseProfile="basic" id="Layer_1"
	 xmlns="http://www.w3.org/2000/svg" xmlns:xlink="http://www.w3.org/1999/xlink" x="0px" y="0px" width="380px" height="312px"
	 viewBox="0 0 380 312" xml:space="preserve">
<g>
	<path fill="none" stroke="#FFFFFF" stroke-miterlimit="10" d="M50.334,219.979c-2.966-19.742-6.922-51.822,11.715-65.091
		c18.058-12.857,49.844-7.253,70.369-6.869c30.095,0.563,58.163-2.797,76.296-28.552c16.052-22.8,31.677-57.91,58.201-70.559
		c26.78-12.771,60.361-7.752,79.319,14.463"/>
	<g>
		<path fill="#FFFFFF" d="M349.907,68.161c-2.579-1.589-6.165-3.259-9.01-3.807l4.807-1.573l2.688-4.283
			C348.236,61.392,348.988,65.275,349.907,68.161z"/>
	</g>
</g>
<g>
	<path fill="none" stroke="#FFFFFF" stroke-miterlimit="10" d="M357.215,78.715c-0.1,0.512-0.204,1-0.312,1.468"/>
	<path fill="none" stroke="#FFFFFF" stroke-miterlimit="10" stroke-dasharray="2.9994,2.9994" d="M356.084,83.07
		c-3.085,8.928-8.835,7.202-19.033,10.998c-21.834,8.128-13.817,22.773-18.527,40.149c-8.396,30.973-56.771,13.518-72.635,0.283
		c-11.679-9.744-20.178-23.167-21.83-38.457c-1.192-11.026,2.678-22.659-0.412-33.46c-6.89-24.075-49.38-38.113-69.729-23.925
		c-20.258,14.125-16.584,50.212-4.484,67.992c16.398,24.097,39.797,35.274,42.978,66.87c0.944,9.381,2.45,22.869-5.757,29.588
		c-10.138,8.297-29.562,4.384-41.518,4.816c-14.696,0.532-27.537,2.5-28.709,19.242c-0.755,10.801,3.964,26.624-5.816,34.823
		c-10.008,8.388-21.799-2.819-32.112-9.986"/>
	<path fill="none" stroke="#FFFFFF" stroke-miterlimit="10" d="M77.26,251.157c-0.422-0.282-0.841-0.556-1.257-0.818"/>
	<g>
		<path fill="#FFFFFF" d="M70.63,247.581c3.002,0.405,6.957,0.476,9.78-0.179l-3.754,3.389l-0.717,5.005
			C74.907,253.088,72.642,249.846,70.63,247.581z"/>
	</g>
</g>
<rect x="22.901" y="245.893" fill="#FFFFFF" width="25.934" height="16.582"/>
<polyline fill="#FFFFFF" points="17.602,248.393 35.634,226.473 54.135,248.393 "/>
<text transform="matrix(1 0 0 1 6.4502 280.8672)" fill="#FFFFFF" font-family="'Helvetica'" font-size="14.6133">Research </text>
<text transform="matrix(1 0 0 1 6.4502 298.4023)" fill="#FFFFFF" font-family="'Helvetica'" font-size="14.6133">Station</text>
<text transform="matrix(1 0 0 1 257.5518 15.9297)" fill="#FFFFFF" font-family="'Helvetica'" font-size="14.6133">Mushroom</text>
<text transform="matrix(1 0 0 1 257.5518 33.4658)" fill="#FFFFFF" font-family="'Helvetica'" font-size="14.6133">Survey</text>
<text transform="matrix(1 0 0 1 257.5518 169.9873)" fill="#FFFFFF" font-family="'Helvetica'" font-size="14.6133">Return Trip</text>
</svg>
